<svg width="154" height="26" viewBox="0 0 154 26" fill="none" xmlns="http://www.w3.org/2000/svg">
<path d="M5.55766 8.75787L8.80356 6.88589L6.99175 3.74945H24.0313L15.5143 18.5065L13.7025 15.3646L10.4566 17.2421L15.5143 26L30.5231 0H0.5L5.55766 8.75787Z" fill="white"/>
<path d="M47.9026 9.06534C47.8344 8.37784 47.5418 7.84375 47.0247 7.46307C46.5077 7.08239 45.806 6.89204 44.9196 6.89204C44.3174 6.89204 43.8088 6.97727 43.3941 7.14773C42.9793 7.3125 42.6611 7.54261 42.4395 7.83807C42.2236 8.13352 42.1157 8.46875 42.1157 8.84375C42.1043 9.15625 42.1696 9.42898 42.3117 9.66193C42.4594 9.89489 42.6611 10.0966 42.9168 10.267C43.1725 10.4318 43.4679 10.5767 43.8032 10.7017C44.1384 10.821 44.4963 10.9233 44.877 11.0085L46.4452 11.3835C47.2066 11.554 47.9054 11.7812 48.5418 12.0653C49.1782 12.3494 49.7293 12.6989 50.1952 13.1136C50.6611 13.5284 51.0219 14.017 51.2776 14.5795C51.5389 15.142 51.6725 15.7869 51.6782 16.5142C51.6725 17.5824 51.3997 18.5085 50.86 19.2926C50.3259 20.071 49.5532 20.6761 48.5418 21.108C47.5361 21.5341 46.323 21.7472 44.9026 21.7472C43.4935 21.7472 42.2662 21.5312 41.2208 21.0994C40.181 20.6676 39.3685 20.0284 38.7833 19.1818C38.2037 18.3295 37.8997 17.2756 37.8713 16.0199H41.4424C41.4821 16.6051 41.6497 17.0937 41.9452 17.4858C42.2463 17.8722 42.6469 18.1648 43.1469 18.3636C43.6526 18.5568 44.2236 18.6534 44.86 18.6534C45.485 18.6534 46.0276 18.5625 46.4878 18.3807C46.9537 18.1989 47.3145 17.946 47.5702 17.6222C47.8259 17.2983 47.9537 16.9261 47.9537 16.5057C47.9537 16.1136 47.8372 15.7841 47.6043 15.517C47.377 15.25 47.0418 15.0227 46.5986 14.8352C46.1611 14.6477 45.6242 14.4773 44.9878 14.3239L43.0872 13.8466C41.6157 13.4886 40.4537 12.929 39.6014 12.1676C38.7492 11.4062 38.3259 10.3807 38.3316 9.09091C38.3259 8.03409 38.6071 7.1108 39.1753 6.32102C39.7492 5.53125 40.5361 4.91477 41.5361 4.47159C42.5361 4.02841 43.6725 3.80682 44.9452 3.80682C46.2407 3.80682 47.3713 4.02841 48.3372 4.47159C49.3088 4.91477 50.0645 5.53125 50.6043 6.32102C51.1441 7.1108 51.4225 8.02557 51.4395 9.06534H47.9026ZM60.0953 8.40909V11.1364H52.2118V8.40909H60.0953ZM54.0015 5.27273H57.6322V17.4773C57.6322 17.8125 57.6834 18.0739 57.7856 18.2614C57.8879 18.4432 58.0299 18.571 58.2118 18.6449C58.3993 18.7187 58.6152 18.7557 58.8595 18.7557C59.0299 18.7557 59.2004 18.7415 59.3709 18.7131C59.5413 18.679 59.672 18.6534 59.7629 18.6364L60.3339 21.3381C60.1521 21.3949 59.8964 21.4602 59.5669 21.5341C59.2373 21.6136 58.8368 21.6619 58.3652 21.679C57.4902 21.7131 56.7231 21.5966 56.064 21.3295C55.4106 21.0625 54.9021 20.6477 54.5385 20.0852C54.1748 19.5227 53.9959 18.8125 54.0015 17.9545V5.27273ZM65.2333 21.7472C64.3981 21.7472 63.6538 21.6023 63.0003 21.3125C62.3469 21.017 61.8299 20.5824 61.4492 20.0085C61.0742 19.429 60.8867 18.7074 60.8867 17.8438C60.8867 17.1165 61.0202 16.5057 61.2873 16.0114C61.5543 15.517 61.918 15.1193 62.3782 14.8182C62.8384 14.517 63.3611 14.2898 63.9464 14.1364C64.5373 13.983 65.1566 13.875 65.8043 13.8125C66.5657 13.733 67.1793 13.6591 67.6452 13.5909C68.1111 13.517 68.4492 13.4091 68.6594 13.267C68.8697 13.125 68.9748 12.9148 68.9748 12.6364V12.5852C68.9748 12.0455 68.8043 11.6278 68.4634 11.3324C68.1282 11.0369 67.6509 10.8892 67.0316 10.8892C66.3782 10.8892 65.8583 11.0341 65.4719 11.3239C65.0856 11.608 64.8299 11.9659 64.7049 12.3977L61.3469 12.125C61.5174 11.3295 61.8526 10.642 62.3526 10.0625C62.8526 9.47727 63.4975 9.02841 64.2873 8.71591C65.0827 8.39773 66.0032 8.23864 67.0486 8.23864C67.7759 8.23864 68.4719 8.32386 69.1367 8.49432C69.8072 8.66477 70.4009 8.92898 70.918 9.28693C71.4407 9.64489 71.8526 10.1051 72.1538 10.6676C72.4549 11.2244 72.6055 11.892 72.6055 12.6705V21.5H69.1623V19.6847H69.06C68.8498 20.0938 68.5685 20.4545 68.2163 20.767C67.864 21.0739 67.4407 21.3153 66.9464 21.4915C66.452 21.6619 65.881 21.7472 65.2333 21.7472ZM66.2731 19.2415C66.8072 19.2415 67.2788 19.1364 67.6878 18.9261C68.0969 18.7102 68.418 18.4205 68.6509 18.0568C68.8839 17.6932 69.0003 17.2812 69.0003 16.821V15.4318C68.8867 15.5057 68.7305 15.5739 68.5316 15.6364C68.3384 15.6932 68.1197 15.7472 67.8753 15.7983C67.631 15.8437 67.3867 15.8864 67.1424 15.9261C66.8981 15.9602 66.6765 15.9915 66.4776 16.0199C66.0515 16.0824 65.6793 16.1818 65.3611 16.3182C65.043 16.4545 64.7958 16.6392 64.6197 16.8722C64.4435 17.0994 64.3555 17.3835 64.3555 17.7244C64.3555 18.2188 64.5344 18.5966 64.8924 18.858C65.256 19.1136 65.7163 19.2415 66.2731 19.2415ZM74.4622 21.5V8.40909H77.9821V10.6932H78.1185C78.3571 9.88068 78.7577 9.26705 79.3202 8.85227C79.8827 8.43182 80.5304 8.22159 81.2634 8.22159C81.4452 8.22159 81.6412 8.23295 81.8514 8.25568C82.0616 8.27841 82.2463 8.30966 82.4054 8.34943V11.571C82.2349 11.5199 81.9991 11.4744 81.698 11.4347C81.3969 11.3949 81.1213 11.375 80.8713 11.375C80.3372 11.375 79.8599 11.4915 79.4395 11.7244C79.0247 11.9517 78.6952 12.2699 78.4509 12.679C78.2122 13.0881 78.0929 13.5597 78.0929 14.0938V21.5H74.4622ZM95.9255 8.40909L91.3488 21.5H87.2579L82.6812 8.40909H86.5164L89.2352 17.7756H89.3715L92.0818 8.40909H95.9255ZM96.8235 21.5V8.40909H100.454V21.5H96.8235ZM98.6473 6.72159C98.1076 6.72159 97.6445 6.54261 97.2581 6.18466C96.8774 5.82102 96.6871 5.38636 96.6871 4.88068C96.6871 4.38068 96.8774 3.9517 97.2581 3.59375C97.6445 3.23011 98.1076 3.04829 98.6473 3.04829C99.1871 3.04829 99.6473 3.23011 100.028 3.59375C100.414 3.9517 100.608 4.38068 100.608 4.88068C100.608 5.38636 100.414 5.82102 100.028 6.18466C99.6473 6.54261 99.1871 6.72159 98.6473 6.72159ZM113.295 12.142L109.971 12.3466C109.914 12.0625 109.792 11.8068 109.604 11.5795C109.417 11.3466 109.17 11.1619 108.863 11.0256C108.562 10.8835 108.201 10.8125 107.78 10.8125C107.218 10.8125 106.743 10.9318 106.357 11.1705C105.971 11.4034 105.778 11.7159 105.778 12.108C105.778 12.4205 105.903 12.6847 106.153 12.9006C106.403 13.1165 106.832 13.2898 107.439 13.4205L109.809 13.8977C111.082 14.1591 112.03 14.5795 112.655 15.1591C113.28 15.7386 113.593 16.5 113.593 17.4432C113.593 18.3011 113.34 19.054 112.834 19.7017C112.334 20.3494 111.647 20.8551 110.772 21.2188C109.903 21.5767 108.9 21.7557 107.763 21.7557C106.03 21.7557 104.65 21.3949 103.621 20.6733C102.599 19.946 101.999 18.9574 101.823 17.7074L105.394 17.5199C105.502 18.0483 105.763 18.4517 106.178 18.7301C106.593 19.0028 107.124 19.1392 107.772 19.1392C108.408 19.1392 108.92 19.017 109.306 18.7727C109.698 18.5227 109.897 18.2017 109.903 17.8097C109.897 17.4801 109.758 17.2102 109.485 17C109.212 16.7841 108.792 16.6193 108.224 16.5057L105.957 16.054C104.678 15.7983 103.726 15.3551 103.101 14.7244C102.482 14.0937 102.172 13.2898 102.172 12.3125C102.172 11.4716 102.4 10.7472 102.854 10.1392C103.314 9.53125 103.959 9.0625 104.789 8.73295C105.624 8.40341 106.601 8.23864 107.721 8.23864C109.374 8.23864 110.675 8.58807 111.624 9.28693C112.579 9.9858 113.135 10.9375 113.295 12.142ZM123.314 15.9261V8.40909H126.945V21.5H123.459V19.1222H123.323C123.027 19.8892 122.536 20.5057 121.848 20.9716C121.166 21.4375 120.334 21.6705 119.351 21.6705C118.476 21.6705 117.706 21.4716 117.041 21.0739C116.376 20.6761 115.857 20.1108 115.482 19.3778C115.112 18.6449 114.925 17.767 114.919 16.7443V8.40909H118.55V16.0966C118.555 16.8693 118.763 17.4801 119.172 17.929C119.581 18.3778 120.129 18.6023 120.817 18.6023C121.254 18.6023 121.663 18.5028 122.044 18.304C122.425 18.0994 122.732 17.7983 122.965 17.4006C123.203 17.0028 123.32 16.5114 123.314 15.9261ZM132.622 21.7472C131.787 21.7472 131.042 21.6023 130.389 21.3125C129.735 21.017 129.218 20.5824 128.838 20.0085C128.463 19.429 128.275 18.7074 128.275 17.8438C128.275 17.1165 128.409 16.5057 128.676 16.0114C128.943 15.517 129.306 15.1193 129.767 14.8182C130.227 14.517 130.75 14.2898 131.335 14.1364C131.926 13.983 132.545 13.875 133.193 13.8125C133.954 13.733 134.568 13.6591 135.034 13.5909C135.5 13.517 135.838 13.4091 136.048 13.267C136.258 13.125 136.363 12.9148 136.363 12.6364V12.5852C136.363 12.0455 136.193 11.6278 135.852 11.3324C135.517 11.0369 135.039 10.8892 134.42 10.8892C133.767 10.8892 133.247 11.0341 132.86 11.3239C132.474 11.608 132.218 11.9659 132.093 12.3977L128.735 12.125C128.906 11.3295 129.241 10.642 129.741 10.0625C130.241 9.47727 130.886 9.02841 131.676 8.71591C132.471 8.39773 133.392 8.23864 134.437 8.23864C135.164 8.23864 135.86 8.32386 136.525 8.49432C137.196 8.66477 137.789 8.92898 138.306 9.28693C138.829 9.64489 139.241 10.1051 139.542 10.6676C139.843 11.2244 139.994 11.892 139.994 12.6705V21.5H136.551V19.6847H136.448C136.238 20.0938 135.957 20.4545 135.605 20.767C135.252 21.0739 134.829 21.3153 134.335 21.4915C133.84 21.6619 133.269 21.7472 132.622 21.7472ZM133.662 19.2415C134.196 19.2415 134.667 19.1364 135.076 18.9261C135.485 18.7102 135.806 18.4205 136.039 18.0568C136.272 17.6932 136.389 17.2812 136.389 16.821V15.4318C136.275 15.5057 136.119 15.5739 135.92 15.6364C135.727 15.6932 135.508 15.7472 135.264 15.7983C135.019 15.8437 134.775 15.8864 134.531 15.9261C134.287 15.9602 134.065 15.9915 133.866 16.0199C133.44 16.0824 133.068 16.1818 132.75 16.3182C132.431 16.4545 132.184 16.6392 132.008 16.8722C131.832 17.0994 131.744 17.3835 131.744 17.7244C131.744 18.2188 131.923 18.5966 132.281 18.858C132.644 19.1136 133.105 19.2415 133.662 19.2415ZM145.481 4.04545V21.5H141.851V4.04545H145.481ZM149.552 21.7216C148.989 21.7216 148.506 21.5227 148.103 21.125C147.705 20.7216 147.506 20.2386 147.506 19.6761C147.506 19.1193 147.705 18.642 148.103 18.2443C148.506 17.8466 148.989 17.6477 149.552 17.6477C150.097 17.6477 150.575 17.8466 150.984 18.2443C151.393 18.642 151.597 19.1193 151.597 19.6761C151.597 20.0511 151.501 20.3949 151.308 20.7074C151.12 21.0142 150.873 21.2614 150.566 21.4489C150.259 21.6307 149.921 21.7216 149.552 21.7216Z" fill="white"/>
</svg>
