<svg width="64" height="65" viewBox="0 0 64 65" fill="none" xmlns="http://www.w3.org/2000/svg">
<path fill-rule="evenodd" clip-rule="evenodd" d="M16 16.2031C14.5855 16.2031 13.229 16.765 12.2288 17.7652C11.2286 18.7654 10.6667 20.122 10.6667 21.5365V29.5365C10.6667 30.9509 11.2286 32.3075 12.2288 33.3077C13.229 34.3079 14.5855 34.8698 16 34.8698H24C24 36.9915 23.1572 39.0264 21.6569 40.5266C20.1566 42.0269 18.1218 42.8698 16 42.8698H13.3334C12.6261 42.8698 11.9478 43.1507 11.4477 43.6508C10.9476 44.1509 10.6667 44.8292 10.6667 45.5365C10.6667 46.2437 10.9476 46.922 11.4477 47.4221C11.9478 47.9222 12.6261 48.2031 13.3334 48.2031H16C19.5362 48.2031 22.9276 46.7984 25.4281 44.2979C27.9286 41.7974 29.3334 38.406 29.3334 34.8698V21.5365C29.3334 20.122 28.7715 18.7654 27.7713 17.7652C26.7711 16.765 25.4145 16.2031 24 16.2031H16ZM40 16.2031C38.5855 16.2031 37.229 16.765 36.2288 17.7652C35.2286 18.7654 34.6667 20.122 34.6667 21.5365V29.5365C34.6667 30.9509 35.2286 32.3075 36.2288 33.3077C37.229 34.3079 38.5855 34.8698 40 34.8698H48C48 36.9915 47.1572 39.0264 45.6569 40.5266C44.1566 42.0269 42.1218 42.8698 40 42.8698H37.3334C36.6261 42.8698 35.9478 43.1507 35.4477 43.6508C34.9476 44.1509 34.6667 44.8292 34.6667 45.5365C34.6667 46.2437 34.9476 46.922 35.4477 47.4221C35.9478 47.9222 36.6261 48.2031 37.3334 48.2031H40C43.5362 48.2031 46.9276 46.7984 49.4281 44.2979C51.9286 41.7974 53.3334 38.406 53.3334 34.8698V21.5365C53.3334 20.122 52.7715 18.7654 51.7713 17.7652C50.7711 16.765 49.4145 16.2031 48 16.2031H40Z" fill="white"/>
</svg>
