<svg width="26" height="29" viewBox="0 0 26 29" fill="none" xmlns="http://www.w3.org/2000/svg">
<path d="M11.5516 1.35194C11.7076 0.905043 12.3396 0.905042 12.4957 1.35194L14.5421 7.21278C14.5923 7.35666 14.7054 7.46977 14.8493 7.52001L20.7101 9.56641C21.157 9.72245 21.157 10.3545 20.7101 10.5105L14.8493 12.5569C14.7054 12.6072 14.5923 12.7203 14.5421 12.8641L12.4957 18.725C12.3396 19.1719 11.7076 19.1719 11.5516 18.725L9.50518 12.8641C9.45494 12.7203 9.34183 12.6072 9.19795 12.5569L3.33711 10.5105C2.89021 10.3545 2.89021 9.72245 3.33711 9.56641L9.19795 7.52001C9.34183 7.46977 9.45494 7.35666 9.50518 7.21278L11.5516 1.35194Z" fill="white"/>
<path d="M17.9659 14.6832C18.1219 14.2363 18.7539 14.2363 18.91 14.6832L20.2828 18.6151C20.3331 18.7589 20.4462 18.8721 20.59 18.9223L24.5219 20.2951C24.9688 20.4512 24.9688 21.0832 24.5219 21.2392L20.59 22.6121C20.4462 22.6623 20.3331 22.7755 20.2828 22.9193L18.91 26.8511C18.7539 27.298 18.1219 27.2981 17.9659 26.8512L16.593 22.9193C16.5428 22.7755 16.4297 22.6623 16.2858 22.6121L12.354 21.2392C11.9071 21.0832 11.9071 20.4512 12.354 20.2951L16.2858 18.9223C16.4297 18.8721 16.5428 18.7589 16.593 18.6151L17.9659 14.6832Z" fill="white"/>
<path d="M4.8593 15.4801C5.01534 15.0332 5.64736 15.0332 5.8034 15.4801L6.59893 17.7585C6.64917 17.9024 6.76228 18.0155 6.90616 18.0657L9.18454 18.8613C9.63144 19.0173 9.63143 19.6493 9.18453 19.8054L6.90616 20.6009C6.76228 20.6511 6.64917 20.7642 6.59893 20.9081L5.8034 23.1865C5.64736 23.6334 5.01534 23.6334 4.8593 23.1865L4.06377 20.9081C4.01353 20.7642 3.90042 20.6511 3.75654 20.6009L1.47816 19.8054C1.03126 19.6493 1.03126 19.0173 1.47816 18.8612L3.75654 18.0657C3.90042 18.0155 4.01353 17.9024 4.06377 17.7585L4.8593 15.4801Z" fill="white"/>
</svg>
