<svg width="24" height="25" viewBox="0 0 24 25" fill="none" xmlns="http://www.w3.org/2000/svg">
<path d="M19.2806 18.4224C19.3503 18.4921 19.4056 18.5748 19.4433 18.6659C19.481 18.7569 19.5004 18.8545 19.5004 18.9531C19.5004 19.0516 19.481 19.1492 19.4433 19.2402C19.4056 19.3313 19.3503 19.414 19.2806 19.4837C19.2109 19.5534 19.1282 19.6086 19.0372 19.6463C18.9461 19.6841 18.8486 19.7035 18.75 19.7035C18.6515 19.7035 18.5539 19.6841 18.4628 19.6463C18.3718 19.6086 18.2891 19.5534 18.2194 19.4837L12 13.2634L5.78063 19.4837C5.6399 19.6244 5.44903 19.7035 5.25001 19.7035C5.05098 19.7035 4.86011 19.6244 4.71938 19.4837C4.57865 19.3429 4.49959 19.1521 4.49959 18.9531C4.49959 18.754 4.57865 18.5632 4.71938 18.4224L10.9397 12.2031L4.71938 5.98368C4.57865 5.84295 4.49959 5.65208 4.49959 5.45305C4.49959 5.25403 4.57865 5.06316 4.71938 4.92243C4.86011 4.7817 5.05098 4.70264 5.25001 4.70264C5.44903 4.70264 5.6399 4.7817 5.78063 4.92243L12 11.1427L18.2194 4.92243C18.3601 4.7817 18.551 4.70264 18.75 4.70264C18.949 4.70264 19.1399 4.7817 19.2806 4.92243C19.4214 5.06316 19.5004 5.25403 19.5004 5.45305C19.5004 5.65208 19.4214 5.84295 19.2806 5.98368L13.0603 12.2031L19.2806 18.4224Z" fill="#9B9B9B"/>
</svg>
